
<svg id="padlock" xmlns="http://www.w3.org/2000/svg" width="11.25" height="15" viewBox="0 0 11.25 15">
  <path id="Path_47" data-name="Path 47" d="M12.844,18.375H4.406A1.408,1.408,0,0,1,3,16.969V10.406A1.408,1.408,0,0,1,4.406,9h8.437a1.408,1.408,0,0,1,1.406,1.406v6.563A1.408,1.408,0,0,1,12.844,18.375ZM4.406,9.938a.469.469,0,0,0-.469.469v6.563a.469.469,0,0,0,.469.469h8.437a.469.469,0,0,0,.469-.469V10.406a.469.469,0,0,0-.469-.469Z" transform="translate(-3 -3.375)" fill="#767676"/>
  <path id="Path_65" data-name="Path 65" d="M6.468,6.563a.469.469,0,0,0,.468-.469V3.75a2.81,2.81,0,1,1,5.62,0V6.094a.468.468,0,1,0,.937,0V3.75A3.747,3.747,0,1,0,6,3.75V6.094A.469.469,0,0,0,6.468,6.563Z" transform="translate(-4.122)" fill="#767676"/>
  <path id="Path_49" data-name="Path 49" d="M11.25,15.5a1.25,1.25,0,1,1,1.25-1.25A1.251,1.251,0,0,1,11.25,15.5Zm0-1.562a.313.313,0,1,0,.313.312A.313.313,0,0,0,11.25,13.938Z" transform="translate(-5.625 -4.875)" fill="#767676"/>
  <path id="Path_50" data-name="Path 50" d="M11.719,18.406a.469.469,0,0,1-.469-.469V16.219a.469.469,0,0,1,.938,0v1.719A.469.469,0,0,1,11.719,18.406Z" transform="translate(-6.094 -5.906)" fill="#767676"/>
</svg>
