<svg id="padlock" xmlns="http://www.w3.org/2000/svg" width="15.96" height="15" viewBox="0 0 15.96 15">
  <path id="Path_47" data-name="Path 47" d="M12.844,18.375H4.406A1.408,1.408,0,0,1,3,16.969V10.406A1.408,1.408,0,0,1,4.406,9h8.437a1.408,1.408,0,0,1,1.406,1.406v6.563A1.408,1.408,0,0,1,12.844,18.375ZM4.406,9.938a.469.469,0,0,0-.469.469v6.563a.469.469,0,0,0,.469.469h8.437a.469.469,0,0,0,.469-.469V10.406a.469.469,0,0,0-.469-.469Z" transform="translate(-3 -3.375)" fill="#767676"/>
  <path id="Path_65" data-name="Path 65" d="M13.031,6.563a.469.469,0,0,1-.469-.469V3.75a2.812,2.812,0,1,0-5.625,0V6.094a.469.469,0,1,1-.937,0V3.75a3.75,3.75,0,1,1,7.5,0V6.094A.469.469,0,0,1,13.031,6.563Z" transform="translate(2.46)" fill="#767676"/>
  <path id="Path_49" data-name="Path 49" d="M11.25,15.5a1.25,1.25,0,1,1,1.25-1.25A1.251,1.251,0,0,1,11.25,15.5Zm0-1.562a.313.313,0,1,0,.313.312A.313.313,0,0,0,11.25,13.937Z" transform="translate(-5.625 -4.875)" fill="#767676"/>
  <path id="Path_50" data-name="Path 50" d="M11.719,18.406a.469.469,0,0,1-.469-.469V16.219a.469.469,0,0,1,.938,0v1.719A.469.469,0,0,1,11.719,18.406Z" transform="translate(-6.094 -5.906)" fill="#767676"/>
</svg>
