<svg xmlns="http://www.w3.org/2000/svg" width="36" height="28.335" viewBox="0 0 36 28.335">
  <g id="camera_1_" data-name="camera (1)" transform="translate(0 -44.8)">
    <g id="Group_1351" data-name="Group 1351" transform="translate(0 44.8)">
      <g id="Group_1350" data-name="Group 1350" transform="translate(0 0)">
        <path id="Path_917" data-name="Path 917" d="M34.8,49.214a3.871,3.871,0,0,0-2.84-1.2H26.281v-.068a3.073,3.073,0,0,0-.924-2.224,3.131,3.131,0,0,0-2.224-.924H12.867a3.155,3.155,0,0,0-3.183,3.148v.068H4.038a3.871,3.871,0,0,0-2.84,1.2A4.068,4.068,0,0,0,0,52.055V69.1a3.871,3.871,0,0,0,1.2,2.84,4.068,4.068,0,0,0,2.84,1.2H31.962a3.871,3.871,0,0,0,2.84-1.2A4.068,4.068,0,0,0,36,69.1V52.055A3.871,3.871,0,0,0,34.8,49.214ZM34.221,69.1h-.034a2.22,2.22,0,0,1-2.224,2.224H4.038A2.22,2.22,0,0,1,1.814,69.1V52.055A2.22,2.22,0,0,1,4.038,49.83h6.6a.92.92,0,0,0,.924-.924v-.992A1.288,1.288,0,0,1,12.9,46.579H23.133a1.288,1.288,0,0,1,1.335,1.335v.992a.92.92,0,0,0,.924.924H32a2.22,2.22,0,0,1,2.224,2.224Z" transform="translate(0 -44.8)" fill="#767676"/>
        <path id="Path_918" data-name="Path 918" d="M120.418,130.8a8.412,8.412,0,1,0,5.954,2.464A8.433,8.433,0,0,0,120.418,130.8Zm4.654,13.106a6.609,6.609,0,0,1-9.308,0,6.542,6.542,0,0,1-1.916-4.654,6.687,6.687,0,0,1,1.916-4.654,6.542,6.542,0,0,1,4.654-1.916,6.687,6.687,0,0,1,4.654,1.916,6.542,6.542,0,0,1,1.916,4.654A6.4,6.4,0,0,1,125.072,143.906Z" transform="translate(-102.418 -123.443)" fill="#767676"/>
        <circle id="Ellipse_80" data-name="Ellipse 80" cx="1.677" cy="1.677" r="1.677" transform="translate(28.506 7.323)" fill="#767676"/>
      </g>
    </g>
  </g>
</svg>
