<svg xmlns="http://www.w3.org/2000/svg" width="10" height="12.308" viewBox="0 0 10 12.308" color="#FF00EE">
  <g id="trash_1_" data-name="trash (1)" transform="translate(-48)">
    <path id="Path_43" data-name="Path 43" d="M57.038,1.538H54.923V1.154A1.155,1.155,0,0,0,53.769,0H52.231a1.155,1.155,0,0,0-1.154,1.154v.385H48.962A.963.963,0,0,0,48,2.5V3.846a.385.385,0,0,0,.385.385h.21l.332,6.978a1.152,1.152,0,0,0,1.153,1.1H55.92a1.152,1.152,0,0,0,1.153-1.1l.332-6.978h.21A.385.385,0,0,0,58,3.846V2.5A.963.963,0,0,0,57.038,1.538Zm-5.192-.385a.385.385,0,0,1,.385-.385h1.538a.385.385,0,0,1,.385.385v.385H51.846ZM48.769,2.5a.193.193,0,0,1,.192-.192h8.077a.193.193,0,0,1,.192.192v.962H48.769ZM56.3,11.172a.384.384,0,0,1-.384.366H50.08a.384.384,0,0,1-.384-.366l-.331-6.941h7.27Z" fill="#767676"/>
    <path id="Path_44" data-name="Path 44" d="M240.385,213.769a.385.385,0,0,0,.385-.385v-5a.385.385,0,0,0-.769,0v5A.385.385,0,0,0,240.385,213.769Z" transform="translate(-187.385 -203)" fill="#767676"/>
    <path id="Path_45" data-name="Path 45" d="M320.385,213.769a.385.385,0,0,0,.385-.385v-5a.385.385,0,1,0-.769,0v5A.385.385,0,0,0,320.385,213.769Z" transform="translate(-265.462 -203)" fill="#767676"/>
    <path id="Path_46" data-name="Path 46" d="M160.385,213.769a.385.385,0,0,0,.385-.385v-5a.385.385,0,0,0-.769,0v5A.385.385,0,0,0,160.385,213.769Z" transform="translate(-109.308 -203)" fill="#767676"/>
  </g>
</svg>